<svg width="27" height="35" viewBox="0 0 27 35" fill="none" xmlns="http://www.w3.org/2000/svg">
<g clip-path="url(#clip0_11_1115)">
<path d="M18.32 10.21C18.1375 10.2087 17.957 10.1714 17.7888 10.1004C17.6207 10.0293 17.4682 9.92582 17.34 9.79582C17.2119 9.66581 17.1106 9.51184 17.042 9.3427C16.9733 9.17355 16.9387 8.99254 16.94 8.81V0H3.44C2.52052 0.0105539 1.64259 0.384596 0.998026 1.0404C0.35346 1.69621 -0.00534743 2.58048 -2.15802e-06 3.5V31.5C-0.00534743 32.4195 0.35346 33.3038 0.998026 33.9596C1.64259 34.6154 2.52052 34.9894 3.44 35H23.55C24.4712 34.9921 25.3517 34.6192 25.9984 33.9631C26.6451 33.307 27.0053 32.4212 27 31.5V10.21H18.32Z" fill="#046888"/>
<path d="M17 20.53H14.71V17H11.28V20.53H9L13 24.64L17 20.53ZM9 25.82V27H17V25.82H9Z" fill="white"/>
</g>
<defs>
<clipPath id="clip0_11_1115">
<rect width="27" height="35" fill="white"/>
</clipPath>
</defs>
</svg>
